<svg width="96" height="96" xmlns="http://www.w3.org/2000/svg" xmlns:xlink="http://www.w3.org/1999/xlink" xml:space="preserve" overflow="hidden"><g transform="translate(-592 -312)"><path d="M619.062 365.756C622.269 365.652 630.426 365.896 637.088 370.465 637.58 370.807 638.164 370.992 638.763 370.995L641.254 370.995C641.83 370.992 642.392 370.821 642.872 370.504 649.891 365.911 657.838 365.659 660.929 365.755 661.496 365.777 662.045 365.55 662.431 365.133 662.839 364.698 663.041 364.11 662.987 363.516L661.479 346.414C661.393 345.372 660.532 344.564 659.486 344.546L659.472 344.546C658.99 344.55 658.286 344.571 657.417 344.638L657.046 340.332 656.293 340.196C650.296 339.455 644.29 341.498 639.989 345.742 635.688 341.499 629.682 339.456 623.686 340.196L622.933 340.332 622.562 344.637C621.698 344.571 620.998 344.55 620.519 344.546L620.505 344.546C619.459 344.564 618.597 345.372 618.513 346.415L617.004 363.518C616.95 364.112 617.153 364.702 617.562 365.137 617.949 365.551 618.496 365.776 619.062 365.756ZM659.487 346.591 660.994 363.757C655.208 363.569 649.465 364.815 644.277 367.383 648.361 364.548 653.027 362.661 657.935 361.861L658.893 361.744 657.591 346.652C658.39 346.598 659.042 346.585 659.487 346.591ZM655.188 342.075 656.737 360.025C650.932 361.09 645.504 363.649 640.989 367.45L640.989 347.578C644.675 343.734 649.874 341.719 655.188 342.075ZM624.79 342.075C630.104 341.719 635.303 343.733 638.989 347.578L638.989 367.45C634.474 363.649 629.046 361.09 623.241 360.025ZM620.504 346.546C620.948 346.549 621.595 346.569 622.39 346.628L621.086 361.744 622.044 361.861C626.794 362.634 631.322 364.424 635.317 367.108 630.217 364.716 624.628 363.546 618.996 363.693Z"/><path d="M606.998 332.006 604.998 332.006 604.998 378.018 675.002 378.018 675.002 332.006 606.998 332.006ZM673.002 376.018 606.998 376.018 606.998 334.006 673.002 334.006Z"/><path d="M676.002 327.004 603.998 327.004C601.791 327.011 600.004 328.798 599.998 331.005L599.998 379.019C600.004 381.225 601.791 383.013 603.998 383.02L632.997 383.02 632.997 393.022 621.999 393.022 621.999 395.022 658.001 395.022 658.001 393.022 646.997 393.022 646.997 383.02 676.002 383.02C678.208 383.013 679.995 381.226 680.002 379.019L680.002 331.005C679.995 328.798 678.208 327.011 676.002 327.004ZM644.997 393.022 634.997 393.022 634.997 383.02 644.997 383.02ZM678.002 379.019C678.001 380.123 677.106 381.018 676.002 381.02L603.998 381.02C602.894 381.018 601.999 380.123 601.998 379.019L601.998 331.005C601.999 329.901 602.894 329.006 603.998 329.004L676.002 329.004C677.106 329.006 678.001 329.901 678.002 331.005Z"/><path d="M652.711 352.338C649.63 353.291 646.697 354.67 643.998 356.437L643.998 358.889C646.699 356.93 649.693 355.411 652.869 354.389Z"/><path d="M652.305 347.048C649.371 347.991 646.577 349.326 643.998 351.016L643.998 353.468C646.581 351.591 649.436 350.12 652.463 349.106Z"/></g></svg>